<?xml version="1.0" encoding="UTF-8"?><svg id="Layer_1" xmlns="http://www.w3.org/2000/svg" viewBox="0 0 730.35 828.24"><defs><style>.cls-1{fill:#fff;}.cls-2{fill:#30ba78;}</style></defs><rect class="cls-2" x="103.88" y="151.97" width="524.31" height="524.31" rx="30.95" ry="30.95"/><path class="cls-1" d="m554.92,324.05c-.3-.49-.6-.95-.92-1.39-.24-.33-.52-.65-.82-.95-.14-.19-.27-.35-.44-.49-.11-.11-.19-.22-.3-.3-.25-.25-.49-.44-.73-.63-.19-.16-.35-.3-.54-.44-.41-.3-.84-.6-1.28-.84-.27-.16-.54-.3-.82-.46l-185.79-107.35c-4.27-2.48-9.55-2.5-13.85-.03l-99.87,57.49c-2.97,1.71-5.11,4.41-6.2,7.51-.08.22-.14.41-.19.63-.14.43-.24.84-.33,1.28-.11.52-.16,1.06-.22,1.58,0,.33-.03.68-.03,1.01v35.8l27.72,16v-27.67l125.64,73.07v.03l4.76,2.75.03.03,27.07,15.75v134.97l-15.4-8.9v32.02l22.15,12.79c.05.05.14.08.19.11.03.03.03.05.05.05.24.14.52.27.76.38.27.14.57.27.84.38,1.69.71,3.48,1.06,5.28,1.06s3.65-.38,5.36-1.09c.54-.22,1.06-.49,1.58-.79.03,0,.08-.03.11-.05l101.23-59.74c4.22-2.5,6.8-7.05,6.8-11.94v-164.68c0-2.48-.65-4.87-1.85-6.94Zm-270.78-43.31l72.2-41.54,158.66,91.68-73.24,41.57h-.03l-157.6-91.71Zm244.9,207.01l-.14.08-73.37,43.31v-134.64l73.51-41.71v132.95Z"/><polygon class="cls-1" points="236.13 394.88 236.13 486.1 252.58 495.84 252.58 404.38 236.13 394.88"/><polygon class="cls-1" points="274.71 417.16 274.71 508.39 291.16 518.13 291.16 426.66 274.71 417.16"/><polygon class="cls-1" points="313.29 439.23 313.29 530.45 329.74 540.19 329.74 448.73 313.29 439.23"/><path class="cls-1" d="m290.56,372.04v32.02l32.02,18.47v-32.02l-32.02-18.47Zm72.77,121.47v37.6l27.72,16.02v-37.63l-27.72-16Zm0,56.61v30.88l-24.29-14.04v32.05l31.2,18.01c2.15,1.25,4.54,1.88,6.94,1.88s4.79-.63,6.94-1.85c4.3-2.48,6.94-7.07,6.94-12.02v-38.88l-27.72-16.02Zm-121.83-39.5v32.05l32.59,18.83v-32.05l-32.59-18.83Zm-45.43-193.13c-4.3-2.48-9.58-2.5-13.87,0-4.27,2.48-6.91,7.05-6.91,12v36.43l27.72,16.02v-28.43l22.04,12.73v-32.02l-28.97-16.73Zm-20.76,105.07l27.72,16.02v-37.63l-27.72-16v37.6Zm27.75,65.86v-30.82l-27.75-16.02.03,54.87c0,4.95,2.64,9.52,6.91,12l42.79,24.73v-32.05l-21.98-12.71Zm87.49,50.55v32.02l32.02,18.5v-32.02l-32.02-18.5Zm93.56-112.93l-45.08-26.04v32.02l24.29,14.04v28.43l27.72,16v-52.42c0-4.95-2.64-9.55-6.94-12.02Zm-142.61-82.32v32.02l32.59,18.8v-31.99l-32.59-18.83Z"/></svg>